<svg xmlns="http://www.w3.org/2000/svg" viewBox="0 0 338.2 101.44"><defs><style>.cls-1{fill:#38b6ff;}.cls-2{fill:#fff;}</style></defs><g id="Calque_2" data-name="Calque 2"><g id="Calque_1-2" data-name="Calque 1"><path class="cls-1" d="M31.44,0A40.84,40.84,0,0,1,43.52,1.81a40.43,40.43,0,0,1,8.75,3.54L55,7.19,48,21c-.56-.36-1.33-.83-2.31-1.42a39.15,39.15,0,0,0-5.54-2.35,22.21,22.21,0,0,0-7.54-1.48A10.57,10.57,0,0,0,26,17.63a6,6,0,0,0-2.36,5,4.43,4.43,0,0,0,1.11,2.9,13.67,13.67,0,0,0,3.77,2.85q2.68,1.53,4.71,2.46c1.36.62,3.45,1.53,6.27,2.75A38,38,0,0,1,52,42.1a17.15,17.15,0,0,1,5.21,12.21A26.22,26.22,0,0,1,54.9,65.75a18.88,18.88,0,0,1-6.44,7.65,30.27,30.27,0,0,1-9.08,4.1,41.66,41.66,0,0,1-10.8,1.33,46.83,46.83,0,0,1-9.77-1,35.69,35.69,0,0,1-8-2.52q-3.22-1.52-5.81-3a27.36,27.36,0,0,1-3.79-2.48L0,68.79,8.67,54.23c.73.61,1.75,1.4,3,2.35a49.18,49.18,0,0,0,6.85,3.82,20.56,20.56,0,0,0,8.73,2.39q11,0,11-7.46a5.54,5.54,0,0,0-.79-2.89,8.92,8.92,0,0,0-2.77-2.69,33.17,33.17,0,0,0-3.5-2.1q-1.53-.8-5-2.4T21.1,42.79a28.77,28.77,0,0,1-10.7-8.52,18.21,18.21,0,0,1-3.77-11A21.08,21.08,0,0,1,14.19,6.5,25.73,25.73,0,0,1,31.44,0Z"/><path class="cls-1" d="M109.43,36a25.27,25.27,0,0,1,6.65,17.75,25.45,25.45,0,0,1-6.65,17.79,21.77,21.77,0,0,1-16.85,7.27q-9.42,0-15.5-5.89v28.5H60.77V30.15H76.89V35.5h.19a20,20,0,0,1,15.5-6.73A21.82,21.82,0,0,1,109.43,36ZM95.56,61.79a10.8,10.8,0,0,0,3.19-8,10.89,10.89,0,0,0-3-8,11.7,11.7,0,0,0-15.91,0,10.83,10.83,0,0,0-3.09,7.94,11.12,11.12,0,0,0,18.86,8Z"/><path class="cls-1" d="M122.34,71.6a25.27,25.27,0,0,1-6.63-17.75,25.45,25.45,0,0,1,6.63-17.79,21.82,21.82,0,0,1,16.87-7.29q9.42,0,15.5,5.9V30.15H171V77.46H154.9V72.1h-.19a20,20,0,0,1-15.5,6.73A21.87,21.87,0,0,1,122.34,71.6Zm13.87-25.77a10.8,10.8,0,0,0-3.16,8,10.85,10.85,0,0,0,3,8,10.74,10.74,0,0,0,8,3.09A10.55,10.55,0,0,0,152,61.79a10.82,10.82,0,0,0,3.11-7.94,11.13,11.13,0,0,0-18.88-8Z"/><path class="cls-1" d="M202.66,42.15a10.73,10.73,0,0,0-7.94,3.41,11.37,11.37,0,0,0-3.31,8.21,11.49,11.49,0,0,0,3.31,8.29,10.71,10.71,0,0,0,7.94,3.42,15.88,15.88,0,0,0,4.19-.54,12.86,12.86,0,0,0,2.92-1.13l.81-.56,5.54,11.35c-.43.31-1,.69-1.81,1.15a28.39,28.39,0,0,1-5.25,1.88,31.12,31.12,0,0,1-8.79,1.2A26.1,26.1,0,0,1,182,71.52a23.17,23.17,0,0,1-7.87-17.58A23.51,23.51,0,0,1,182,36.21a25.89,25.89,0,0,1,18.32-7.44,32,32,0,0,1,8.66,1.11,21.45,21.45,0,0,1,5.63,2.2l1.56,1.13-5.54,11.14A13.26,13.26,0,0,0,202.66,42.15Z"/><path class="cls-2" d="M261.69,1.4V16.6H235.5V31.73h25.08V46.94H235.5V62.25h26.19V77.46H218.17V1.4Z"/><path class="cls-2" d="M338.2,77.46H315.8l-18-25.92-18,25.92H258.37l28.75-40.94-24-35.12H283.8l14,20.73,14-20.73h21.56l-24.9,35.12Z"/></g></g></svg>